# xmcd
#
# Track frame offsets:
#	150
#	13127
#	30114
#	41709
#	64884
#	75039
#	88209
#	99546
#	114966
#	125240
#	138169
#	156011
#	172001
#	181938
#	193817
#	203481
#	219596
#	233963
#	245528
#	258011
#
# Disc length: 3578
#
# Revision: 1
# Processed by: cddbd v1.5.1PL0 Copyright (c) Steve Scherf et al.
# Submitted via: EasyCDDAExtractor 4.6.0.1
# Normalized: r0:DSETVAR1,TDELIM( - )
#
DISCID=080df814
DTITLE=Various Artist - Superhits Of Country [CD1]
DYEAR=1900
DGENRE=
TTITLE0=Johnnny Cash - Fplsom Prison Blues
TTITLE1=Janie Fricke - It Ain´T Easy Bein´ Easy
TTITLE2=Freddy Fender - Before The Next Tear Drop Falls
TTITLE3=The Amazing Rhythm Aces - King Of The Cowboys
TTITLE4=Brenda Lee - I´M Sorry ( Live Performace )
TTITLE5=Johnny Paycheck - Take This Job And Shove It
TTITLE6=Stella Parton - The Danger Of A Stranger
TTITLE7=Cal Smith - I´Ve Found Someone Of My Own
TTITLE8=Don Williams - Take My Hand For A While
TTITLE9=Bill Anderson - Still
TTITLE10=Crystal Gayle - Our Love Is On The Fault Line
TTITLE11=Ed Bruce - When You Fall In Love Everything´S A Waltz
TTITLE12=Jeannie C. Riley - The Girl Most Likely
TTITLE13=Porter Wagoner - Misery Loves Company
TTITLE14=Merle Haggard - The Legend Of Bonnie And Clyde
TTITLE15=Johnny Lee - Lookin´ For Love
TTITLE16=Conway Twitty - You´Ve Never Been This Far Before
TTITLE17=Charlie Louvin - If I Could Only Win Your Love
TTITLE18=Charlie Rich - Behin Closed Doors
TTITLE19=Faron Young - Hello Walls
EXTD=
EXTT0=
EXTT1=
EXTT2=
EXTT3=
EXTT4=
EXTT5=
EXTT6=
EXTT7=
EXTT8=
EXTT9=
EXTT10=
EXTT11=
EXTT12=
EXTT13=
EXTT14=
EXTT15=
EXTT16=
EXTT17=
EXTT18=
EXTT19=
PLAYORDER=
